<svg viewBox="0 0 24 24" xmlns="http://www.w3.org/2000/svg" id="Diamond-Shine--Streamline-Ultimate" height="24" width="24">
  <desc>
    Diamond Shine Streamline Icon: https://streamlinehq.com
  </desc>
  <path d="m12.004 0.5 0 23" fill="none" stroke="#ffffff" stroke-linecap="round" stroke-linejoin="round" stroke-width="1"></path>
  <path d="m19.504 8 2 -2" fill="none" stroke="#ffffff" stroke-linecap="round" stroke-linejoin="round" stroke-width="1"></path>
  <path d="m19.504 16 2 2" fill="none" stroke="#ffffff" stroke-linecap="round" stroke-linejoin="round" stroke-width="1"></path>
  <path d="m20.004 12 3.5 0" fill="none" stroke="#ffffff" stroke-linecap="round" stroke-linejoin="round" stroke-width="1"></path>
  <path d="m4.504 8 -2 -2" fill="none" stroke="#ffffff" stroke-linecap="round" stroke-linejoin="round" stroke-width="1"></path>
  <path d="m4.504 16 -2 2" fill="none" stroke="#ffffff" stroke-linecap="round" stroke-linejoin="round" stroke-width="1"></path>
  <path d="m4.004 12 -3.5 0" fill="none" stroke="#ffffff" stroke-linecap="round" stroke-linejoin="round" stroke-width="1"></path>
  <path d="M7 18.05a0.5 0.5 0 0 0 0.13 0.336l4.5 4.95a0.5 0.5 0 0 0 0.74 0l4.5 -4.95a0.5 0.5 0 0 0 0.13 -0.336V4.6a0.5 0.5 0 0 0 -0.188 -0.39l-4.5 -3.6a0.5 0.5 0 0 0 -0.624 0l-4.5 3.6A0.5 0.5 0 0 0 7 4.6Z" fill="none" stroke="#ffffff" stroke-linecap="round" stroke-linejoin="round" stroke-width="1"></path>
  <path d="M16.951 4.376 12.004 5.86 7.057 4.376" fill="none" stroke="#ffffff" stroke-linecap="round" stroke-linejoin="round" stroke-width="1"></path>
  <path d="m7.049 18.257 4.955 1.486 4.955 -1.486" fill="none" stroke="#ffffff" stroke-linecap="round" stroke-linejoin="round" stroke-width="1"></path>
</svg>