<svg xmlns="http://www.w3.org/2000/svg" viewBox="0 0 24 24" id="Office-Employee--Streamline-Ultimate" height="24" width="24">
  <desc>
    Office Employee Streamline Icon: https://streamlinehq.com
  </desc>
  <g>
    <path d="M18.5 23h-13l-1.69 -6.76a1 1 0 0 1 0.19 -0.86 1 1 0 0 1 0.78 -0.38h14.44a1 1 0 0 1 0.79 0.38 1 1 0 0 1 0.18 0.86Z" fill="none" stroke="#ffffff" stroke-linecap="round" stroke-linejoin="round" stroke-width="1"></path>
    <path d="m1 23 22 0" fill="none" stroke="#ffffff" stroke-linecap="round" stroke-linejoin="round" stroke-width="1"></path>
    <path d="m12 12 0 1.5" fill="none" stroke="#ffffff" stroke-linecap="round" stroke-linejoin="round" stroke-width="1"></path>
    <path d="M9 2.73a5.81 5.81 0 0 0 4.17 1.77 5.91 5.91 0 0 0 2.3 -0.5" fill="none" stroke="#ffffff" stroke-linecap="round" stroke-linejoin="round" stroke-width="1"></path>
    <path d="M8.5 4.5a3.5 3.5 0 1 0 7 0 3.5 3.5 0 1 0 -7 0" fill="none" stroke="#ffffff" stroke-linecap="round" stroke-linejoin="round" stroke-width="1"></path>
    <path d="M10.75 18.75a1.25 1.25 0 1 0 2.5 0 1.25 1.25 0 1 0 -2.5 0" fill="none" stroke="#ffffff" stroke-linecap="round" stroke-linejoin="round" stroke-width="1"></path>
    <path d="M16.75 13a5 5 0 0 0 -9.5 0" fill="none" stroke="#ffffff" stroke-linecap="round" stroke-linejoin="round" stroke-width="1"></path>
  </g>
</svg>